<svg xmlns="http://www.w3.org/2000/svg" width="387" height="86" viewBox="0 0 387 86" version="1.1"><path d="M 57.595 25.266 C 52.483 28.190, 48.178 33.637, 47.528 38.004 L 47.007 41.500 48.042 38.211 C 50.250 31.197, 59.506 24.960, 67.616 25.022 C 71.040 25.048, 77.161 27.769, 81.944 31.392 C 83.839 32.826, 86.123 34, 87.020 34 C 88.979 34, 93 29.940, 93 27.963 C 93 27.101, 92.396 27.417, 91.443 28.777 C 89.271 31.879, 84.612 31.694, 80.644 28.348 C 73.736 22.523, 64.541 21.293, 57.595 25.266 M 34.825 52.674 C 35.251 54.767, 35.503 55.019, 35.794 53.644 C 36.011 52.623, 35.751 51.351, 35.218 50.818 C 34.592 50.192, 34.452 50.849, 34.825 52.674 M 90.481 64.286 C 89.193 66.332, 85.991 68.753, 81.639 70.968 C 74.245 74.733, 68.311 75.362, 55.500 73.741 L 49.500 72.981 55 74.924 C 62.446 77.555, 71.473 77.543, 78.557 74.893 C 84.572 72.642, 93 65.511, 93 62.671 C 93 60.442, 92.832 60.550, 90.481 64.286" stroke="none" fill="#f4f4f4" fill-rule="evenodd"/><path d="M 363.176 2.050 C 360.438 4.601, 359 8.050, 359 12.065 C 359 14.798, 358.738 15, 355.191 15 C 350.172 15, 347.667 16.933, 347.667 20.805 C 347.667 25.312, 349.545 27, 354.562 27 L 358.879 27 359.189 45.750 C 359.533 66.476, 360.101 68.810, 365.722 72.594 C 371.564 76.527, 383.738 76.582, 386.214 72.687 C 387.434 70.769, 387.112 67.255, 385.575 65.718 C 384.791 64.934, 382.024 64.001, 379.426 63.645 C 371.899 62.613, 372 62.883, 372 43.878 L 372 27 377.845 27 C 384.377 27, 387 25.231, 387 20.826 C 387 16.814, 384.110 15, 377.715 15 L 372.088 15 371.794 7.750 L 371.500 0.500 368.488 0.204 C 366.487 0.008, 364.703 0.628, 363.176 2.050 M 41.989 12.929 C 30.708 14.460, 20.518 16.018, 19.346 16.390 C 16.419 17.319, 14.479 22.158, 15.939 24.886 C 17.697 28.170, 20.367 29.036, 26.700 28.374 C 33.232 27.691, 35.423 28.990, 34.827 33.195 C 34.505 35.464, 34.258 35.508, 18.899 36 C 1.638 36.553, -0 37.114, -0 42.467 C 0 48.313, 1.881 49, 17.894 49 C 32.595 49, 36 49.736, 36 52.913 C 36 56.188, 33.135 57.464, 25.735 57.482 C 19.353 57.498, 18.561 57.732, 16.762 60.130 C 14.451 63.210, 15.041 66.326, 18.346 68.491 C 19.618 69.324, 26.630 70.585, 35.020 71.489 C 42.984 72.347, 53.813 73.551, 59.083 74.164 C 66.434 75.020, 69.855 74.994, 73.768 74.056 C 81.061 72.306, 89.111 67.208, 91.444 62.861 C 93.294 59.414, 93.305 59.114, 91.671 56.620 C 89.361 53.095, 84.847 53.108, 80.644 56.652 C 70.886 64.881, 57.588 63.344, 50.517 53.169 C 47.890 49.389, 47.507 47.972, 47.504 42.015 C 47.500 35.879, 47.812 34.805, 50.595 31.346 C 58.608 21.389, 70.933 20.159, 80.644 28.348 C 84.612 31.694, 89.271 31.879, 91.443 28.777 C 92.299 27.555, 93 25.771, 93 24.812 C 93 21.897, 87.181 16.231, 81.358 13.476 C 73.489 9.753, 66.125 9.651, 41.989 12.929 M 126.734 11.025 C 117.845 13.268, 109.484 20.138, 104.862 29 C 102.908 32.745, 102.513 35.010, 102.507 42.500 C 102.501 50.342, 102.860 52.234, 105.300 57.203 C 106.920 60.501, 110.200 64.793, 113.080 67.382 C 128.924 81.627, 155.266 76.413, 164.720 57.161 C 167.098 52.319, 167.500 50.271, 167.500 43 C 167.500 35.736, 167.097 33.679, 164.730 28.858 C 161.504 22.290, 154.732 15.654, 148.394 12.850 C 143.248 10.574, 132.211 9.644, 126.734 11.025 M 200 11.175 C 198.075 11.722, 195.069 13.255, 193.319 14.583 L 190.139 16.996 189.819 14.748 C 189.529 12.703, 188.959 12.500, 183.500 12.500 L 177.500 12.500 177.220 41 C 177.065 56.675, 177.172 70.456, 177.457 71.623 C 177.742 72.791, 179.359 74.320, 181.051 75.021 C 183.764 76.145, 184.445 76.059, 186.814 74.293 L 189.500 72.291 190.025 52.895 C 190.592 31.964, 191.338 28.790, 196.483 25.419 C 200.222 22.969, 206.167 22.518, 209.820 24.407 C 215.444 27.315, 216 29.737, 216 51.340 C 216 68.741, 216.193 71.017, 217.844 73.056 C 220.351 76.152, 225.649 76.152, 228.156 73.056 C 229.799 71.027, 230 68.769, 230 52.349 C 230 35.718, 230.201 33.527, 232.059 29.885 C 235.207 23.714, 242.751 21.269, 248.872 24.434 C 254.359 27.271, 254.463 27.714, 255 50.617 C 255.429 68.927, 255.740 72.174, 257.202 73.634 C 259.437 75.864, 264.456 75.802, 266.987 73.512 C 268.878 71.800, 269 70.463, 269 51.383 C 269 33.327, 268.772 30.464, 266.940 25.570 C 263.470 16.294, 254.293 10, 244.239 10 C 239.071 10, 231.497 12.871, 228.550 15.948 L 225.680 18.944 221.911 15.538 C 216.208 10.386, 208.310 8.814, 200 11.175 M 300.951 11.302 C 286.953 15.261, 278 27.626, 278 43 C 278 56.416, 284.046 66.436, 295.564 72.106 C 301.229 74.895, 303.079 75.300, 310.272 75.329 C 319.594 75.367, 324.595 74.012, 330.808 69.767 C 335.828 66.338, 337.545 62.904, 335.850 59.685 C 335.218 58.483, 334.205 57.169, 333.600 56.765 C 331.637 55.454, 327.280 55.958, 325.872 57.658 C 325.118 58.571, 322.700 60.136, 320.500 61.137 C 311.376 65.287, 299.247 62.069, 293.704 54.027 C 290.247 49.012, 290.298 49, 315 49 C 337.124 49, 338.081 48.919, 340.127 46.873 C 344.226 42.774, 340.870 29.429, 333.470 20.398 C 326.629 12.050, 312.389 8.067, 300.951 11.302 M 128.211 24.076 C 123.468 25.520, 117.332 32.071, 115.922 37.197 C 114.518 42.306, 115.851 50.578, 118.695 54.408 C 121.311 57.931, 127.590 61.755, 131.975 62.496 C 144.351 64.587, 156.586 52.345, 154.494 39.965 C 153.534 34.281, 148.901 27.656, 144.385 25.510 C 139.758 23.311, 132.763 22.691, 128.211 24.076 M 301.350 24.928 C 297.381 26.730, 292 32.949, 292 35.732 C 292 36.709, 296.144 37, 310.067 37 L 328.135 37 327.451 34.750 C 326.304 30.972, 322.299 26.370, 318.655 24.641 C 314.079 22.469, 306.488 22.595, 301.350 24.928" stroke="none" fill="#fcfcfc" fill-rule="evenodd"/></svg>