<svg xmlns="http://www.w3.org/2000/svg" width="649" height="73" viewBox="0 0 649 73" version="1.1"><path d="M 246.455 6.455 C 244.923 7.986, 244 10.054, 244 11.955 C 244 14.655, 243.668 15, 241.071 15 C 237.986 15, 235 17.213, 235 19.500 C 235 21.787, 237.986 24, 241.071 24 L 244 24 244 37.600 L 244 51.200 247.250 54.438 C 253.027 60.194, 264.500 59.966, 264.500 54.096 C 264.500 51.360, 263.013 50.349, 257.750 49.508 L 254 48.909 254 36.455 L 254 24 258.300 24 C 263.044 24, 265 22.686, 265 19.500 C 265 16.314, 263.044 15, 258.300 15 L 254 15 254 11.082 C 254 8.927, 253.727 6.452, 253.393 5.582 C 252.498 3.249, 249.252 3.658, 246.455 6.455 M 519.720 6.005 C 518.191 7.209, 516.801 9.545, 516.426 11.543 C 515.877 14.468, 515.363 15, 513.089 15 C 509.862 15, 508 16.646, 508 19.500 C 508 22.357, 509.862 24, 513.102 24 L 515.804 24 516.152 37.428 C 516.456 49.175, 516.763 51.210, 518.597 53.678 C 520.973 56.875, 528.728 59.385, 533.258 58.423 C 539.194 57.163, 538.888 50, 532.899 50 C 526.393 50, 526 49.201, 526 35.965 L 526 24 530.250 23.985 C 535.181 23.967, 536.478 23.308, 537.399 20.355 C 538.404 17.131, 535.651 15, 530.481 15 L 526.105 15 525.802 9.759 C 525.453 3.696, 523.886 2.729, 519.720 6.005 M 544.061 5.939 C 542.094 7.906, 542.001 9.086, 542.015 31.750 C 542.024 44.813, 542.361 55.983, 542.765 56.573 C 544.103 58.527, 546.741 58.870, 548.885 57.368 C 550.825 56.009, 551 54.956, 551 44.666 C 551 31.976, 551.892 29.676, 557.405 28.154 C 561.933 26.904, 565.381 27.712, 568.171 30.680 C 570.275 32.917, 570.548 34.330, 571 45.328 L 571.500 57.500 575 57.500 L 578.500 57.500 578.808 44 C 579.155 28.767, 578.225 25.538, 572.462 21.976 C 568.501 19.529, 558.313 19.269, 553.988 21.506 L 551.075 23.012 550.788 13.756 C 550.519 5.100, 550.358 4.480, 548.311 4.189 C 547.092 4.015, 545.210 4.790, 544.061 5.939 M 337.314 6.750 C 336.972 7.713, 336.520 8.821, 336.309 9.214 C 336.099 9.606, 336.843 10.843, 337.964 11.964 C 339.673 13.673, 341.286 14, 348 14 L 356 14 356 34.943 C 356 55.132, 356.076 55.940, 358.115 57.368 C 359.278 58.183, 360.965 58.595, 361.865 58.285 C 365.691 56.965, 366 55.172, 366 34.309 L 366 14 372.750 13.986 C 381.600 13.968, 383.894 13.269, 384.623 10.368 C 385.899 5.283, 384.618 5, 360.346 5 C 339.908 5, 337.882 5.154, 337.314 6.750 M 4.698 10.781 C 3.206 12.430, 3 15.402, 3 35.261 C 3 57.249, 3.056 57.883, 5.072 58.523 C 6.212 58.885, 8.245 58.904, 9.590 58.567 L 12.035 57.953 11.768 33.726 L 11.500 9.500 8.948 9.203 C 7.419 9.025, 5.715 9.657, 4.698 10.781 M 35.643 19.972 C 34.071 20.474, 31.991 21.603, 31.020 22.482 C 29.389 23.958, 29.212 23.919, 28.703 21.971 C 28.257 20.267, 27.512 19.923, 24.826 20.181 L 21.500 20.500 21.228 38.703 C 20.967 56.094, 21.045 56.954, 22.978 57.988 C 24.375 58.736, 25.592 58.754, 26.916 58.045 C 28.609 57.139, 28.871 55.624, 29.166 45.030 C 29.488 33.462, 29.598 32.942, 32.273 30.270 C 34.492 28.053, 35.957 27.500, 39.609 27.500 C 43.370 27.500, 44.598 27.994, 46.587 30.306 C 48.832 32.917, 49 33.903, 49 44.499 C 49 54.872, 49.184 56.015, 51.065 57.333 C 53.768 59.226, 56.876 58.344, 57.595 55.479 C 57.910 54.224, 58.017 47.640, 57.834 40.849 C 57.471 27.416, 56.592 25.014, 50.770 21.540 C 47.441 19.553, 39.526 18.733, 35.643 19.972 M 79.686 19.961 C 78.138 20.456, 76.262 21.367, 75.517 21.986 C 74.484 22.843, 73.944 22.723, 73.249 21.480 C 72.615 20.348, 71.288 19.948, 68.918 20.174 L 65.500 20.500 65.226 38.496 C 64.982 54.537, 65.138 56.628, 66.667 57.746 C 68.977 59.435, 69.661 59.339, 72 57 C 73.756 55.244, 74 53.667, 74 44.056 C 74 33.928, 74.180 32.902, 76.413 30.306 C 78.402 27.994, 79.630 27.500, 83.391 27.500 C 87.045 27.500, 88.507 28.052, 90.727 30.273 C 93.399 32.945, 93.513 33.481, 93.856 45.044 C 94.169 55.584, 94.442 57.166, 96.106 58.057 C 97.401 58.750, 98.633 58.732, 100 58 C 101.849 57.010, 102 55.906, 102 43.333 C 102 28.167, 100.804 24.501, 94.850 21.422 C 91.163 19.516, 83.412 18.769, 79.686 19.961 M 121.764 19.996 C 113.646 22.440, 106.973 31.018, 107.022 38.946 C 107.053 43.892, 110.030 49.941, 114.264 53.659 C 124.187 62.371, 142.469 58.468, 146.933 46.685 C 148.462 42.650, 148.248 33.381, 146.551 30.099 C 142.211 21.706, 131.110 17.182, 121.764 19.996 M 150.339 20.560 C 150.006 21.427, 153.081 29.748, 157.268 39.310 C 165.346 57.756, 167.167 60.088, 172.022 58.202 C 174.073 57.406, 175.993 53.907, 182.293 39.489 C 190.449 20.824, 190.726 19, 185.401 19 C 182.427 19, 181.235 20.858, 175.455 34.500 C 172.892 40.550, 170.496 45.823, 170.130 46.217 C 169.765 46.611, 166.999 41.055, 163.983 33.869 C 160.968 26.683, 157.742 20.397, 156.816 19.902 C 154.211 18.508, 151.001 18.834, 150.339 20.560 M 203.637 20.415 C 195.273 23.505, 190.235 31.896, 191.308 40.953 C 192.067 47.364, 194.139 51.241, 198.639 54.674 C 203.626 58.477, 214.206 59.256, 219.385 56.200 C 222.735 54.224, 222.825 54.221, 223.313 56.089 C 223.668 57.448, 224.701 58, 226.887 58 C 230.964 58, 231.133 57.088, 230.786 37 L 230.500 20.500 227.549 20.164 C 225.648 19.948, 224.166 20.420, 223.382 21.492 C 222.284 22.994, 221.940 23.008, 219.833 21.637 C 216.325 19.355, 208.173 18.740, 203.637 20.415 M 280.774 20.139 C 271.415 22.772, 265.338 34.114, 267.997 43.988 C 269.748 50.491, 276.010 56.422, 282.611 57.829 C 290.314 59.472, 298.109 57.748, 302.405 53.452 C 306.412 49.445, 302.074 44.411, 297.306 47.535 C 293.121 50.277, 288.973 51.070, 284.752 49.933 C 280.912 48.899, 277 45.905, 277 44 C 277 43.381, 282.293 43, 290.878 43 C 306.959 43, 307.565 42.709, 306.739 35.378 C 306.164 30.279, 304.141 27.049, 298.831 22.751 C 294.781 19.473, 287.095 18.361, 280.774 20.139 M 391.620 20.233 C 384.118 22.219, 377.981 30.918, 378.028 39.500 C 378.064 46.097, 384.109 54.586, 390.500 57.012 C 397.477 59.661, 407.940 57.883, 413.356 53.129 C 418.518 48.599, 420.594 37.751, 417.649 30.702 C 413.882 21.686, 402.870 17.257, 391.620 20.233 M 595.637 20.405 C 587.577 23.403, 583 30.141, 583 39.008 C 583 52.450, 594.749 60.963, 609.064 57.893 C 615.701 56.469, 620.673 52.126, 619.078 49.145 C 617.487 46.173, 614.907 45.693, 612.015 47.831 C 608.500 50.430, 604.190 51.227, 600.090 50.037 C 596.726 49.061, 592 45.433, 592 43.826 C 592 43.372, 598.214 43, 605.809 43 C 622.425 43, 623.653 42.484, 622.608 35.948 C 620.616 23.495, 607.560 15.971, 595.637 20.405 M 628.469 20.220 C 628.185 20.961, 628.075 29.652, 628.226 39.534 L 628.500 57.500 632 57.500 L 635.500 57.500 636 45.276 C 636.575 31.222, 637.594 29.266, 644.853 28.293 C 648.785 27.766, 649 27.562, 649 24.368 C 649 21.142, 648.842 21, 645.250 21.006 C 643.188 21.010, 640.289 21.644, 638.808 22.417 C 636.297 23.727, 636.095 23.676, 635.808 21.661 C 635.576 20.033, 634.696 19.423, 632.243 19.186 C 630.194 18.989, 628.794 19.372, 628.469 20.220 M 434.252 22.104 C 421.829 28.254, 419.250 44.250, 429.095 54.095 C 433.845 58.845, 440.593 60.635, 447.343 58.935 C 449.923 58.286, 452.278 57.359, 452.576 56.877 C 453.436 55.486, 455 55.858, 455 57.453 C 455 65.289, 444.069 69.678, 436.384 64.928 C 431.775 62.080, 428.596 62.662, 428.166 66.432 C 427.572 71.644, 430.681 72.952, 443.717 72.978 L 454.933 73 458.255 69.678 C 460.082 67.852, 462.122 64.537, 462.788 62.312 C 464.041 58.130, 464.537 25.563, 463.393 22.582 C 462.612 20.547, 456.162 20.414, 455.393 22.417 C 454.939 23.601, 454.159 23.522, 450.675 21.939 C 445.196 19.452, 439.495 19.509, 434.252 22.104 M 479.491 21.865 C 474.320 24.214, 469.281 29.988, 468.426 34.541 C 466.633 44.103, 470.829 53.657, 478.316 57.057 C 488.908 61.865, 507.113 56.669, 504.404 49.611 C 503.378 46.938, 500.176 46.728, 496.364 49.084 C 490.051 52.985, 480.917 51.451, 478 46 C 476.956 44.049, 477.241 44, 489.715 43.986 C 496.747 43.979, 503.517 43.700, 504.761 43.367 C 507.643 42.595, 508.446 39.370, 507.048 34.180 C 503.952 22.681, 490.716 16.766, 479.491 21.865 M 124.388 27.679 C 123.226 27.912, 120.976 29.459, 119.388 31.117 C 116.988 33.622, 116.500 34.980, 116.500 39.148 C 116.500 43.550, 116.900 44.521, 119.766 47.082 C 126.049 52.696, 136.714 50.023, 139.043 42.250 C 141.627 33.627, 133.752 25.798, 124.388 27.679 M 209 27.652 C 202.754 29.709, 200 33.350, 200 39.550 C 200 44.716, 205.292 50, 210.466 50 C 217.842 50, 221.944 45.964, 221.978 38.673 C 221.996 34.655, 221.510 33.356, 219.077 30.923 C 217.469 29.315, 215.481 28, 214.659 28 C 213.836 28, 212.564 27.811, 211.832 27.579 C 211.099 27.348, 209.825 27.381, 209 27.652 M 281.007 29.197 C 279.086 30.502, 277.365 32.342, 277.184 33.285 C 276.888 34.818, 277.978 35, 287.427 35 C 293.393 35, 298 34.589, 298 34.056 C 298 33.536, 296.973 31.917, 295.717 30.457 C 292.378 26.576, 285.706 26.004, 281.007 29.197 M 395.298 27.699 C 394.087 27.934, 391.724 29.689, 390.048 31.598 C 385.647 36.610, 385.773 41.973, 390.400 46.600 C 393.186 49.386, 394.557 50, 397.996 50 C 405.552 50, 410.491 45.350, 410.295 38.423 C 410.166 33.856, 407.643 30.167, 403.454 28.416 C 400.035 26.988, 399.301 26.923, 395.298 27.699 M 597.483 28.535 C 594.584 29.966, 591.390 33.723, 592.299 34.633 C 592.540 34.873, 597.634 34.942, 603.618 34.785 L 614.500 34.500 610.850 30.750 C 606.763 26.551, 602.825 25.898, 597.483 28.535 M 440 28.658 C 436.859 29.897, 433 34.483, 432.398 37.692 C 431.069 44.778, 436.259 51, 443.500 51 C 453.837 51, 458.644 38.824, 451.144 31.638 C 448.344 28.956, 442.921 27.506, 440 28.658 M 481.775 29.559 C 479.377 30.860, 477 33.785, 477 35.434 C 477 35.745, 481.940 36, 487.979 36 L 498.957 36 497.784 33.425 C 495.504 28.420, 487.455 26.476, 481.775 29.559" stroke="none" fill="#fffcfc" fill-rule="evenodd"/><path d="" stroke="none" fill="#fcfcfc" fill-rule="evenodd"/></svg>