<svg width="82" height="80" viewBox="0 0 82 80" fill="none" xmlns="http://www.w3.org/2000/svg">
<circle cx="46.8669" cy="45.0667" r="34.9333" fill="#280E52"/>
<path d="M42.2 45.2293C42.8429 45.2293 43.4081 44.9856 43.8955 44.4982C44.385 44.0087 44.6298 43.4435 44.6298 42.8026C44.6298 42.1597 44.385 41.5945 43.8955 41.1071C43.4061 40.6197 42.8409 40.3749 42.2 40.3729C41.557 40.3729 40.9918 40.6176 40.5044 41.1071C40.017 41.5966 39.7723 42.1618 39.7702 42.8026C39.7702 43.4456 40.0149 44.0108 40.5044 44.4982C40.9918 44.9856 41.557 45.2293 42.2 45.2293ZM42.2 36.4715C42.5712 36.4715 42.8927 36.344 43.1644 36.0889C43.4382 35.8338 43.6072 35.5289 43.6715 35.1742C43.7752 34.3529 44.0158 33.6622 44.3933 33.1022C44.7708 32.5443 45.4998 31.7644 46.5804 30.7626C47.8954 29.568 48.8121 28.4998 49.3306 27.5582C49.8492 26.6207 50.1084 25.5432 50.1084 24.3258C50.1084 22.2309 49.3618 20.4856 47.8684 19.0898C46.3751 17.6918 44.4856 16.9929 42.2 16.9929C40.7274 16.9929 39.3709 17.3413 38.1306 18.0382C36.8904 18.7351 35.8948 19.7306 35.144 21.0249C34.9532 21.3443 34.9283 21.6792 35.0693 22.0298C35.2083 22.3803 35.4489 22.625 35.7911 22.764C36.1229 22.905 36.4714 22.9216 36.8364 22.8138C37.2015 22.7059 37.4856 22.4923 37.6889 22.1729C38.2344 21.3391 38.8783 20.7138 39.6209 20.2969C40.3634 19.8821 41.2231 19.6746 42.2 19.6746C43.6829 19.6746 44.9139 20.1133 45.8929 20.9906C46.8677 21.8701 47.3551 23.0056 47.3551 24.3973C47.3551 25.2435 47.1186 26.0306 46.6458 26.7586C46.1708 27.4846 45.3546 28.3609 44.1973 29.3875C43.0151 30.4038 42.1958 31.3123 41.7395 32.1129C41.2832 32.9135 41.0032 33.908 40.8995 35.0964C40.8498 35.4386 40.9555 35.7539 41.2169 36.0422C41.4782 36.3284 41.8059 36.4715 42.2 36.4715ZM25.4466 52.8889C24.0155 52.8889 22.8209 52.4098 21.8626 51.4515C20.9023 50.4912 20.4222 49.2955 20.4222 47.8644V14.3578C20.4222 12.9266 20.9023 11.732 21.8626 10.7738C22.8209 9.81346 24.0155 9.33331 25.4466 9.33331H58.9533C60.3844 9.33331 61.5791 9.81346 62.5373 10.7738C63.4976 11.732 63.9778 12.9266 63.9778 14.3578V47.8644C63.9778 49.2955 63.4986 50.4912 62.5404 51.4515C61.5801 52.4098 60.3844 52.8889 58.9533 52.8889H25.4466ZM25.4466 49.7778H58.9533C59.4304 49.7778 59.869 49.5786 60.2693 49.1804C60.6675 48.7801 60.8666 48.3415 60.8666 47.8644V14.3578C60.8666 13.8807 60.6675 13.4421 60.2693 13.0418C59.869 12.6435 59.4304 12.4444 58.9533 12.4444H25.4466C24.9696 12.4444 24.5309 12.6435 24.1306 13.0418C23.7324 13.4421 23.5333 13.8807 23.5333 14.3578V47.8644C23.5333 48.3415 23.7324 48.7801 24.1306 49.1804C24.5309 49.5786 24.9696 49.7778 25.4466 49.7778ZM16.1133 62.2222C14.6822 62.2222 13.4875 61.7431 12.5293 60.7849C11.569 59.8246 11.0889 58.6289 11.0889 57.1978V22.1355C11.0889 21.6938 11.2372 21.3246 11.5338 21.028C11.8324 20.7293 12.2026 20.58 12.6444 20.58C13.0862 20.58 13.4564 20.7293 13.7551 21.028C14.0538 21.3266 14.2021 21.6958 14.2 22.1355V57.1978C14.2 57.6748 14.3991 58.1135 14.7973 58.5138C15.1976 58.912 15.6363 59.1111 16.1133 59.1111H51.1755C51.6173 59.1111 51.9865 59.2594 52.2831 59.556C52.5797 59.8526 52.729 60.2228 52.7311 60.6666C52.7311 61.1084 52.5818 61.4786 52.2831 61.7773C51.9865 62.0739 51.6173 62.2222 51.1755 62.2222H16.1133Z" fill="#FF8D1A"/>
</svg>
