<svg width="39" height="40" viewBox="0 0 39 40" fill="none" xmlns="http://www.w3.org/2000/svg">
<circle cx="19.2647" cy="19.7647" r="19.2647" fill="white"/>
<path d="M14 19.5C15.3261 19.5 16.5979 18.9732 17.5355 18.0355C18.4732 17.0979 19 15.8261 19 14.5C19 13.1739 18.4732 11.9021 17.5355 10.9645C16.5979 10.0268 15.3261 9.5 14 9.5C12.6739 9.5 11.4021 10.0268 10.4645 10.9645C9.52678 11.9021 9 13.1739 9 14.5C9 15.8261 9.52678 17.0979 10.4645 18.0355C11.4021 18.9732 12.6739 19.5 14 19.5ZM25.25 19.5C26.2446 19.5 27.1984 19.1049 27.9017 18.4017C28.6049 17.6984 29 16.7446 29 15.75C29 14.7554 28.6049 13.8016 27.9017 13.0983C27.1984 12.3951 26.2446 12 25.25 12C24.2554 12 23.3016 12.3951 22.5983 13.0983C21.8951 13.8016 21.5 14.7554 21.5 15.75C21.5 16.7446 21.8951 17.6984 22.5983 18.4017C23.3016 19.1049 24.2554 19.5 25.25 19.5ZM9.3125 22C8.56658 22 7.85121 22.2963 7.32376 22.8238C6.79632 23.3512 6.5 24.0666 6.5 24.8125V25.125C6.5 25.125 6.5 30.75 14 30.75C21.5 30.75 21.5 25.125 21.5 25.125V24.8125C21.5 24.0666 21.2037 23.3512 20.6762 22.8238C20.1488 22.2963 19.4334 22 18.6875 22H9.3125ZM25.25 28.875C23.7862 28.875 22.665 28.6488 21.8062 28.3025C22.306 27.459 22.6197 26.5184 22.7262 25.5437C22.7384 25.4253 22.7463 25.3065 22.75 25.1875V24.8125C22.7516 23.7653 22.3475 22.7582 21.6225 22.0025C21.665 22.0007 21.7075 21.9999 21.75 22H28.75C29.4793 22 30.1788 22.2897 30.6945 22.8055C31.2103 23.3212 31.5 24.0207 31.5 24.75C31.5 24.75 31.5 28.875 25.25 28.875Z" fill="#F52F86"/>
</svg>
